# xmcd CD database file
#
# Track frame offsets:
#	183
#	36045
#	81768
#	102148
#	132963
#	165320
#	195320
#
# Disc length: 2986 seconds
#
# Revision: 1
# Processed by: cddbd v1.5.1PL0 Copyright (c) Steve Scherf et al.
# Submitted via: CDex 1.51
#
DISCID=480ba807
DTITLE=Maurizio Quintavalle - Out Of Perspective
DYEAR=1994
DGENRE=Jazz
TTITLE0=Off Pitch
TTITLE1=Cantos
TTITLE2=Matrix
TTITLE3=Out of Perspective
TTITLE4=Endgame
TTITLE5=Song for Luli
TTITLE6=Little Niles
EXTD=YEAR: 1994
EXTT0=
EXTT1=
EXTT2=
EXTT3=
EXTT4=
EXTT5=
EXTT6=
PLAYORDER=
